<svg width="128" height="128" viewBox="0 0 128 128" fill="none" xmlns="http://www.w3.org/2000/svg">
<g clip-path="url(#clip0_786_7050)">
<path fill-rule="evenodd" clip-rule="evenodd" d="M27.585 64.0004C27.585 59.8434 28.275 55.8574 29.508 52.1194L7.93797 35.6484C3.73397 44.1834 1.36597 53.8014 1.36597 64.0004C1.36597 74.1914 3.73197 83.8024 7.92897 92.3324L29.487 75.8294C28.266 72.1084 27.585 68.1374 27.585 64.0004Z" fill="white"/>
<path fill-rule="evenodd" clip-rule="evenodd" d="M65.457 26.182C74.488 26.182 82.645 29.382 89.054 34.618L107.698 16C96.337 6.109 81.771 0 65.457 0C40.129 0 18.361 14.484 7.93799 35.648L29.507 52.119C34.477 37.033 48.644 26.182 65.457 26.182Z" fill="white"/>
<path fill-rule="evenodd" clip-rule="evenodd" d="M65.457 101.818C48.645 101.818 34.478 90.9669 29.508 75.8809L7.93799 92.3489C18.361 113.516 40.129 128 65.457 128C81.089 128 96.014 122.449 107.215 112.049L86.741 96.2209C80.964 99.8599 73.689 101.818 65.457 101.818Z" fill="white"/>
<path fill-rule="evenodd" clip-rule="evenodd" d="M126.634 64.0003C126.634 60.2183 126.051 56.1453 125.177 52.3643H65.457V77.0913H99.833C98.114 85.5223 93.436 92.0033 86.741 96.2213L107.215 112.049C118.981 101.129 126.634 84.8613 126.634 64.0003Z" fill="white"/>
</g>
<defs>
<clipPath id="clip0_786_7050">
<rect width="128" height="128" fill="white"/>
</clipPath>
</defs>
</svg>
